<?xml version="1.0" encoding="UTF-8" standalone="no"?>
<svg xmlns:xlink="http://www.w3.org/1999/xlink" height="58.8px" width="45.45px" xmlns="http://www.w3.org/2000/svg">
  <g transform="matrix(1.0, 0.0, 0.0, 1.0, 22.7, 29.4)">
    <path d="M4.35 -26.7 Q4.35 -29.4 7.1 -29.4 L20.0 -29.4 Q22.75 -29.4 22.75 -26.7 L22.65 1.15 Q22.65 3.95 19.9 3.95 L12.25 3.95 Q9.55 3.95 9.55 6.65 L9.55 26.7 Q9.55 29.4 6.8 29.4 L-6.85 29.4 Q-9.55 29.4 -9.55 26.7 L-9.55 13.75 Q-9.55 11.0 -12.3 11.0 L-19.95 11.0 Q-22.7 11.0 -22.7 8.3 L-22.7 -26.7 Q-22.7 -29.4 -19.95 -29.4 L-14.15 -29.4 Q-11.4 -29.4 -11.4 -26.7 L-11.4 -0.65 Q-11.4 2.1 -8.65 2.1 L1.65 2.1 Q4.35 2.1 4.35 -0.65 L4.35 -26.7" fill="#ffffff" fill-rule="evenodd" stroke="none"/>
  </g>
</svg>
