<?xml version="1.0" encoding="UTF-8" standalone="no"?>
<svg xmlns:xlink="http://www.w3.org/1999/xlink" height="17.2px" width="69.2px" xmlns="http://www.w3.org/2000/svg">
  <g transform="matrix(1.0, 0.0, 0.0, 1.0, 48.9, -5.3)">
    <path d="M-43.55 21.05 L-43.6 21.1 -43.4 21.05 -43.55 21.05 M-44.25 21.3 L-44.2 21.3 -44.2 21.25 -44.25 21.3 M16.4 6.1 L17.45 5.8 18.45 5.55 18.45 5.45 18.85 5.3 19.65 6.65 19.6 6.75 19.65 6.8 19.65 6.9 Q19.5 7.85 19.9 9.3 L20.3 11.75 20.05 11.85 19.6 11.95 19.1 12.0 15.05 12.5 14.85 12.6 14.5 12.7 14.2 12.8 13.1 12.95 12.45 13.1 11.75 13.25 11.35 13.3 11.1 13.4 8.95 13.85 6.45 14.35 5.65 14.5 4.8 14.65 4.55 14.75 3.75 14.85 2.65 15.2 2.2 15.35 1.55 15.5 1.25 15.6 0.85 15.75 -0.9 16.1 -1.05 16.2 -1.35 16.3 -1.65 16.35 -4.65 17.1 -5.7 17.3 -9.2 18.0 -9.45 18.1 -9.9 18.15 -10.45 18.25 -10.85 18.35 -11.0 18.45 -11.3 18.45 -11.45 18.55 -11.8 18.65 -11.8 18.6 -12.1 18.7 -12.1 18.6 -12.3 18.5 -12.3 18.4 -12.4 18.3 -12.3 18.15 -12.4 18.05 -12.3 18.0 -12.3 17.9 -12.3 17.8 -12.1 17.8 -12.1 17.7 -12.05 17.55 -12.1 17.6 -12.1 17.5 -12.05 17.3 Q-11.8 17.25 -12.05 17.25 L-11.8 17.15 -11.65 17.0 -11.65 16.9 -11.6 16.85 -11.65 16.8 -11.6 16.7 -11.6 16.6 -11.6 16.55 -11.65 16.5 -11.6 16.5 -11.6 16.3 -11.65 16.25 -11.65 16.15 -11.6 16.1 -11.45 16.05 -11.6 16.05 -11.6 16.0 -11.45 15.95 -11.45 15.9 -11.6 15.8 -11.6 15.7 -11.45 15.6 -11.45 15.5 -11.3 15.45 -11.3 15.35 Q-11.3 15.25 -11.45 15.25 L-11.6 15.25 -11.8 15.3 -12.3 15.45 -12.1 15.45 -12.4 15.55 -12.85 15.6 -13.15 15.6 -13.35 15.75 -13.6 15.8 -13.5 15.9 -13.9 15.9 -14.2 16.0 -14.2 16.05 -14.7 16.2 -15.35 16.4 -15.75 16.55 -16.4 16.7 -17.2 17.0 -17.35 17.05 -18.2 17.35 -19.4 17.7 -20.05 17.85 -20.2 17.9 -20.4 17.95 -20.4 18.05 -21.5 18.25 -22.65 18.55 -24.45 18.95 -24.65 19.1 -25.25 19.2 -26.5 19.6 -26.75 19.65 -26.95 19.75 -27.15 19.85 -27.2 19.85 -27.75 20.05 -28.8 20.25 -28.95 20.4 -29.0 20.45 -29.2 20.45 -29.45 20.5 -29.9 20.65 -29.9 20.75 -30.4 20.85 -31.05 20.95 -31.15 20.9 -31.4 20.85 -31.15 20.85 -30.85 20.65 -30.8 20.55 -30.55 20.4 -30.4 20.35 -30.4 20.25 -30.4 20.1 -30.35 20.1 -30.35 20.0 -30.35 19.95 -30.15 19.85 -30.05 19.75 -30.15 19.75 -30.15 19.65 -30.15 19.6 -30.05 19.55 -30.15 19.5 -30.05 19.4 -29.9 19.35 -29.9 19.2 -29.9 19.15 -29.9 19.05 -29.9 18.95 -29.75 18.8 -29.75 18.75 -29.9 18.75 -29.9 18.6 -29.75 18.55 -29.9 18.55 -29.75 18.4 -29.75 18.15 -29.6 18.1 -29.45 18.0 -29.6 18.05 -29.35 17.9 -29.75 18.0 -29.9 18.05 -30.05 18.05 -30.15 18.1 -31.2 18.4 -33.05 18.85 -33.85 18.95 -34.05 18.95 -34.55 19.2 -34.85 19.2 -35.65 19.35 -35.95 19.5 -36.75 19.6 -36.95 19.6 -37.7 19.9 -38.9 20.05 -39.7 20.2 -40.3 20.4 -40.75 20.55 -41.15 20.7 -41.85 20.8 -42.45 21.0 -42.8 21.1 -43.55 21.2 -43.6 21.2 -43.8 21.35 -44.0 21.4 -44.65 21.55 -44.85 21.6 -45.3 21.65 -45.6 21.75 -45.9 21.8 -46.4 21.85 -46.7 22.1 -47.0 22.1 -47.45 22.25 -47.5 22.25 -47.75 22.35 -48.55 22.5 -48.8 22.5 -48.9 22.5 -47.75 22.25 -47.25 22.05 -46.25 21.75 -46.0 21.7 -45.9 21.65 -45.75 21.55 -45.05 21.4 -44.85 21.4 -44.8 21.35 -44.65 21.25 -44.5 21.2 -44.35 21.1 -44.05 21.05 -43.8 21.0 -43.6 20.9 -43.4 20.85 -43.0 20.7 -42.65 20.6 -42.2 20.5 -42.15 20.5 -41.95 20.4 -41.8 20.35 -41.4 20.25 -41.35 20.25 -41.35 20.2 -40.85 20.05 -40.6 20.0 -39.95 19.8 Q-39.75 19.8 -39.7 19.7 L-39.25 19.65 -39.15 19.65 -39.15 19.6 -38.95 19.5 -38.7 19.4 -38.45 19.4 -37.85 19.2 -37.5 18.9 -37.1 18.85 -37.05 18.8 -36.75 18.65 -36.45 18.55 -36.05 18.5 -36.05 18.45 -35.95 18.4 -35.95 18.35 -35.5 18.25 -35.35 18.15 -35.15 18.15 -34.7 18.0 -33.75 17.8 -33.35 17.7 -33.25 17.65 -32.75 17.45 -32.4 17.35 -32.2 17.25 -31.85 17.15 -31.65 17.15 -31.4 17.0 -31.2 16.95 -31.05 16.95 -30.8 16.8 -30.55 16.8 -30.4 16.65 -30.15 16.55 -29.75 16.5 -29.6 16.5 -29.6 16.45 -29.2 16.3 -28.8 16.25 -28.65 16.2 -28.5 16.2 -28.3 16.15 -28.2 16.0 -27.75 16.0 -26.75 15.6 -26.3 15.5 -26.05 15.4 -25.75 15.4 -25.75 15.35 -24.8 15.0 -24.65 15.0 -23.3 14.5 -21.85 14.0 -21.5 13.95 -21.2 14.0 -21.2 14.05 -21.5 14.15 -21.65 14.25 -21.65 14.3 -21.7 14.4 -21.85 14.45 -22.25 14.6 -22.0 14.55 -22.0 14.65 -22.3 14.75 -22.45 14.8 -22.6 14.9 -22.6 14.95 -22.65 15.0 -22.65 15.1 -22.85 15.25 -22.85 15.3 -23.05 15.35 -23.3 15.45 -23.1 15.45 -23.1 15.55 -23.45 15.65 -23.7 15.7 -23.85 15.75 -23.7 15.8 -23.85 15.85 -24.1 15.9 -24.1 15.95 -24.1 16.05 -24.25 16.15 -24.25 16.2 -24.45 16.3 -24.5 16.35 -24.65 16.4 -24.65 16.5 -24.8 16.6 -24.65 16.65 -24.9 16.75 -24.9 16.85 -24.65 16.85 -24.5 16.8 -24.5 16.75 -24.1 16.65 -23.4 16.35 -23.1 16.3 -22.25 16.05 -21.25 15.7 -19.0 15.0 -16.15 14.2 -14.55 13.7 -13.15 13.3 -12.9 13.2 -12.65 13.1 -12.3 13.1 -10.85 12.45 -8.95 11.95 -8.65 11.8 -8.0 11.55 -7.85 11.45 -7.55 11.45 -7.2 11.3 -7.0 11.25 -6.8 11.2 -6.0 11.0 -5.9 10.9 -5.9 10.85 -5.75 10.85 -5.55 10.8 -5.1 10.6 -5.1 10.55 -4.75 10.55 -4.3 10.4 -3.95 10.35 -3.7 10.4 -3.5 10.45 -3.5 10.6 -3.55 10.65 -3.55 10.7 -3.85 10.8 -3.85 10.85 -3.7 10.9 -3.7 10.95 -3.85 11.0 -4.3 11.35 -4.55 11.65 -4.65 12.05 -4.75 12.15 Q-5.1 12.25 -5.0 12.3 L-5.0 12.4 -5.0 12.5 -5.0 12.55 -5.1 12.6 -5.15 12.85 -5.15 12.9 -2.75 12.25 1.15 11.1 1.95 10.85 3.0 10.45 5.6 9.75 8.5 8.8 8.95 8.55 10.25 8.15 12.0 7.6 14.2 6.95 14.85 6.65 15.2 6.55 16.0 6.25 16.3 6.25 16.4 6.15 16.4 6.1" fill="#ffffff" fill-rule="evenodd" stroke="none"/>
  </g>
</svg>
