<?xml version="1.0" encoding="UTF-8" standalone="no"?>
<svg xmlns:xlink="http://www.w3.org/1999/xlink" height="9.75px" width="16.95px" xmlns="http://www.w3.org/2000/svg">
  <g transform="matrix(1.0, 0.0, 0.0, 1.0, -3.1, -4.25)">
    <path d="M4.3 11.2 L4.3 11.15 4.1 11.25 4.2 11.3 4.25 11.25 4.3 11.2 M4.35 11.1 L4.4 11.05 4.35 11.05 4.35 11.1 M19.35 4.6 Q19.45 4.5 19.5 4.5 L19.5 4.4 19.7 4.25 19.85 6.0 19.85 6.2 19.85 6.3 19.9 9.05 20.05 11.9 19.9 12.0 19.85 12.0 19.7 11.95 18.7 11.9 18.6 11.95 18.5 12.0 18.25 11.95 18.05 12.1 17.95 12.1 17.8 12.1 17.75 12.15 17.25 12.25 16.6 12.45 16.45 12.4 16.2 12.45 16.15 12.45 15.95 12.55 15.65 12.7 15.55 12.75 15.4 12.85 15.35 12.9 15.25 13.05 14.8 13.05 14.75 13.1 14.7 13.2 14.65 13.2 13.85 13.5 13.65 13.55 12.75 13.75 12.7 13.8 12.6 13.8 12.5 13.8 12.35 13.9 12.25 13.9 12.25 14.0 12.15 14.0 12.15 13.95 12.05 13.95 12.05 13.9 12.0 13.75 12.0 13.65 12.0 13.5 12.0 13.35 12.0 13.25 12.0 13.05 12.0 12.95 12.05 12.95 12.05 12.85 12.05 12.8 12.15 12.75 12.05 12.7 12.05 12.6 12.15 12.5 12.15 12.4 12.15 12.3 12.2 12.15 12.2 12.05 12.2 11.7 12.2 11.6 12.2 11.4 12.2 11.3 12.2 11.2 12.2 11.15 12.25 11.1 12.2 11.1 12.2 11.0 12.25 11.0 12.25 10.9 12.2 10.8 12.2 10.7 12.25 10.6 12.25 10.5 12.25 10.45 12.25 10.3 12.25 10.15 12.2 10.2 12.15 10.2 12.0 10.25 12.05 10.25 12.0 10.35 11.9 10.35 11.8 10.35 11.8 10.45 11.75 10.5 11.75 10.55 11.6 10.45 11.55 10.55 11.55 10.6 11.45 10.7 11.25 10.8 11.2 10.85 11.05 11.0 10.8 11.15 10.8 11.2 Q10.7 11.25 10.55 11.35 L10.3 11.6 10.15 11.6 10.1 11.65 10.05 11.7 10.05 11.75 9.75 11.85 9.45 12.0 9.05 12.1 9.0 12.15 8.9 12.25 8.55 12.5 8.5 12.5 8.4 12.5 8.4 12.6 8.35 12.6 8.25 12.7 8.0 12.8 7.95 12.9 7.9 12.9 7.9 12.95 7.85 13.0 7.7 13.05 7.7 13.15 7.6 13.1 7.45 13.15 7.45 13.1 7.35 13.0 7.45 13.05 7.5 12.95 7.5 12.8 7.55 12.65 7.6 12.55 7.6 12.5 7.6 12.4 7.6 12.3 7.6 12.2 7.6 12.1 7.65 12.05 7.65 11.95 7.65 11.85 7.65 11.55 7.7 11.5 7.7 11.4 7.7 11.2 7.7 11.1 7.8 11.0 7.8 10.95 7.7 10.85 7.7 10.7 7.8 10.7 7.7 10.6 7.8 10.55 7.8 10.5 7.8 10.4 7.8 10.2 7.85 10.15 7.8 10.1 7.85 10.05 7.8 10.05 7.7 10.0 7.65 10.0 7.65 10.05 7.35 10.2 6.95 10.4 6.75 10.4 6.7 10.4 6.55 10.5 6.5 10.55 6.35 10.5 Q6.2 10.55 6.2 10.6 L6.05 10.6 6.0 10.65 5.8 10.7 5.5 10.75 5.35 10.85 5.15 10.95 5.05 11.05 4.95 11.05 4.75 11.05 4.65 11.15 4.55 11.2 4.35 11.2 4.35 11.25 4.3 11.3 4.3 11.35 4.1 11.4 4.05 11.4 3.95 11.4 3.9 11.5 3.75 11.45 3.65 11.5 3.6 11.65 3.55 11.65 3.45 11.7 3.45 11.75 3.3 11.75 3.15 11.8 3.1 11.75 3.3 11.7 3.3 11.65 3.5 11.45 3.7 11.4 3.75 11.35 3.75 11.3 3.85 11.25 4.0 11.2 4.05 11.2 4.05 11.15 4.1 11.1 4.1 11.05 4.2 10.95 4.25 11.0 4.3 10.95 4.35 10.85 4.4 10.8 4.55 10.75 4.55 10.7 4.6 10.75 4.7 10.65 4.75 10.55 4.8 10.55 4.9 10.5 4.95 10.55 4.95 10.45 5.0 10.4 5.1 10.4 5.1 10.35 5.25 10.2 5.35 10.25 5.4 10.2 5.45 10.25 5.45 10.15 5.5 10.1 5.55 10.05 5.65 10.1 5.75 9.9 5.85 9.7 5.9 9.7 5.9 9.65 6.05 9.55 6.1 9.45 6.2 9.45 6.2 9.35 6.35 9.3 6.35 9.25 6.4 9.3 6.45 9.25 6.55 9.15 6.8 9.1 6.85 9.05 6.9 9.0 7.0 8.85 7.1 8.8 7.2 8.75 7.25 8.7 7.35 8.65 7.35 8.6 7.45 8.55 7.5 8.55 7.55 8.5 7.6 8.4 7.65 8.25 7.8 8.35 7.8 8.3 7.9 8.2 8.0 8.2 8.05 8.15 8.05 8.1 8.15 8.15 8.2 8.1 8.25 8.05 8.5 7.8 8.6 7.85 8.7 7.75 8.7 7.7 8.95 7.5 9.0 7.5 9.35 7.2 9.7 6.9 9.75 6.95 9.85 6.95 9.85 7.0 9.75 7.1 9.75 7.25 9.7 7.35 9.7 7.4 9.6 7.45 9.6 7.55 9.65 7.55 9.65 7.65 9.6 7.7 9.5 7.7 9.5 7.85 9.45 7.9 9.45 7.95 9.45 8.05 9.45 8.2 9.4 8.2 9.35 8.3 9.35 8.45 9.3 8.45 9.25 8.5 9.25 8.65 9.1 8.7 9.1 8.75 9.1 8.85 9.1 8.95 9.05 9.05 9.05 9.1 9.0 9.1 9.0 9.2 9.0 9.25 8.95 9.35 9.0 9.4 8.95 9.5 8.95 9.6 9.0 9.6 9.05 9.65 9.05 9.55 9.1 9.5 9.3 9.3 9.35 9.3 9.6 9.15 9.8 8.9 10.4 8.55 11.05 8.15 11.45 7.9 11.8 7.65 11.85 7.6 11.95 7.5 12.0 7.55 12.35 7.15 12.85 6.85 12.9 6.8 12.9 6.75 13.05 6.65 13.2 6.55 13.3 6.45 13.3 6.4 13.35 6.35 13.6 6.3 13.6 6.2 13.65 6.15 13.7 6.15 13.8 6.05 13.85 6.0 14.0 5.95 14.05 5.95 14.1 6.05 14.2 6.15 14.2 6.3 14.15 6.35 14.15 6.45 14.1 6.5 14.1 6.55 14.1 6.65 14.1 6.7 14.0 7.05 13.95 7.35 13.85 7.75 13.85 7.85 13.8 8.0 13.8 8.05 13.8 8.15 13.8 8.25 13.8 8.35 13.75 8.55 13.75 8.65 14.35 8.25 15.35 7.7 15.5 7.55 15.8 7.3 16.35 6.95 Q16.7 6.65 17.1 6.45 L17.25 6.2 17.55 6.05 18.0 5.65 18.5 5.3 18.7 5.1 18.75 5.0 19.0 4.9 19.05 4.85 19.05 4.75 19.35 4.6" fill="#ffffff" fill-rule="evenodd" stroke="none"/>
  </g>
</svg>
