<?xml version="1.0" encoding="UTF-8" standalone="no"?>
<svg xmlns:xlink="http://www.w3.org/1999/xlink" height="10.6px" width="22.2px" xmlns="http://www.w3.org/2000/svg">
  <g transform="matrix(1.0, 0.0, 0.0, 1.0, 2.2, -4.3)">
    <path d="M-0.6 12.95 L-0.6 12.9 -0.9 13.0 -0.75 13.05 -0.7 13.0 -0.6 12.95 M-0.55 12.8 L-0.55 12.85 -0.5 12.75 -0.55 12.8 M19.3 4.5 L19.55 4.3 19.75 6.05 19.75 6.25 19.75 6.35 19.8 9.1 20.0 11.95 19.8 12.05 19.75 12.05 19.55 12.0 18.25 12.1 18.1 12.15 18.0 12.2 17.65 12.2 17.4 12.35 17.25 12.35 17.05 12.4 17.0 12.45 16.35 12.6 15.5 12.85 15.3 12.8 14.95 12.9 14.9 12.9 14.65 13.05 14.25 13.2 14.1 13.25 13.9 13.4 13.85 13.45 13.7 13.6 13.15 13.65 13.05 13.7 13.0 13.8 12.95 13.8 11.9 14.2 11.65 14.25 10.45 14.55 10.4 14.65 10.25 14.65 10.1 14.65 9.95 14.75 9.8 14.8 9.8 14.9 9.65 14.9 9.65 14.85 9.55 14.85 9.55 14.8 9.45 14.65 9.45 14.55 9.45 14.4 9.45 14.25 9.45 14.15 9.45 13.95 9.45 13.85 9.55 13.85 9.55 13.75 9.55 13.7 9.65 13.65 9.55 13.6 9.55 13.5 9.65 13.4 9.65 13.3 9.65 13.2 9.75 13.05 9.75 12.95 9.75 12.6 9.75 12.5 9.75 12.3 9.75 12.2 9.75 12.1 9.75 12.05 9.8 12.0 9.75 12.0 9.75 11.9 9.8 11.9 9.8 11.8 9.75 11.7 9.75 11.6 9.8 11.5 9.8 11.4 9.8 11.35 9.8 11.2 9.8 11.05 9.75 11.1 9.65 11.1 9.45 11.15 9.55 11.15 9.45 11.25 9.35 11.25 9.2 11.25 9.2 11.35 9.15 11.45 9.15 11.5 8.95 11.4 8.9 11.5 8.9 11.55 8.75 11.65 8.5 11.8 Q8.4 11.75 8.4 11.85 L8.2 12.0 7.9 12.2 7.9 12.25 7.55 12.4 7.25 12.7 7.05 12.7 7.0 12.75 6.9 12.8 6.9 12.85 6.5 13.0 6.15 13.2 5.6 13.3 5.55 13.4 5.4 13.5 4.95 13.8 4.9 13.8 4.75 13.8 4.75 13.9 4.7 13.9 4.55 14.0 4.25 14.15 4.15 14.25 4.1 14.25 4.1 14.3 4.05 14.35 3.85 14.4 3.85 14.5 3.7 14.5 3.5 14.55 3.5 14.5 3.4 14.4 3.5 14.45 3.55 14.35 3.55 14.2 3.65 14.05 3.7 13.95 3.7 13.9 3.7 13.8 3.7 13.7 3.7 13.6 3.7 13.5 3.75 13.4 3.75 13.3 3.75 13.2 3.75 12.9 3.85 12.85 3.85 12.75 3.85 12.55 3.85 12.45 3.95 12.35 3.95 12.3 3.85 12.2 3.85 12.05 3.95 12.05 3.85 11.95 3.95 11.9 3.95 11.85 3.95 11.75 3.95 11.55 4.05 11.5 3.95 11.45 4.05 11.4 3.95 11.4 3.85 11.35 3.75 11.35 3.75 11.4 3.4 11.6 2.85 11.85 2.6 11.85 2.55 11.9 2.35 12.0 2.25 12.05 2.05 12.0 1.85 12.15 1.65 12.15 1.6 12.2 1.35 12.25 0.95 12.35 0.75 12.45 0.5 12.6 0.35 12.7 0.25 12.7 -0.05 12.75 -0.15 12.85 -0.3 12.9 -0.55 12.95 -0.55 13.0 -0.6 13.05 -0.6 13.1 -0.9 13.15 -0.95 13.15 -1.1 13.15 -1.15 13.3 -1.35 13.25 -1.45 13.3 -1.55 13.45 -1.6 13.45 -1.75 13.55 -1.75 13.6 -1.95 13.6 -2.1 13.65 -2.2 13.6 -1.95 13.55 -1.95 13.5 -1.65 13.25 -1.4 13.2 -1.35 13.15 -1.35 13.1 -1.2 13.05 -1.0 12.95 -0.95 12.95 -0.95 12.9 -0.9 12.85 -0.9 12.8 -0.75 12.7 -0.7 12.75 -0.6 12.7 -0.5 12.5 -0.3 12.45 -0.3 12.4 -0.25 12.45 -0.1 12.35 -0.05 12.25 0.05 12.25 0.15 12.15 0.25 12.2 0.25 12.1 0.3 12.05 0.45 12.05 0.45 12.0 Q0.5 11.95 0.65 11.85 L0.75 11.85 0.8 11.8 0.9 11.85 0.9 11.75 0.95 11.7 1.0 11.65 1.15 11.7 1.3 11.5 1.4 11.25 1.5 11.25 1.5 11.2 1.65 11.1 1.75 11.0 1.85 11.0 1.85 10.9 2.05 10.8 2.05 10.75 2.15 10.8 2.2 10.75 2.35 10.65 2.65 10.55 2.7 10.5 2.8 10.45 2.9 10.3 3.05 10.25 3.2 10.15 3.25 10.1 3.4 10.05 3.4 10.0 3.5 9.95 3.55 9.95 3.65 9.9 3.7 9.8 3.75 9.6 3.95 9.7 3.95 9.65 4.1 9.55 4.25 9.55 4.3 9.5 4.3 9.45 4.4 9.45 4.5 9.4 4.55 9.35 4.9 9.1 5.0 9.1 5.15 9.0 5.15 8.95 5.45 8.75 5.55 8.75 6.0 8.4 6.45 8.05 6.5 8.1 6.65 8.1 6.65 8.15 6.5 8.25 6.5 8.4 6.45 8.5 6.45 8.55 6.3 8.6 6.3 8.7 6.4 8.7 6.4 8.8 6.3 8.85 6.2 8.85 6.2 9.0 6.15 9.1 6.15 9.15 6.15 9.25 6.15 9.4 6.05 9.4 6.0 9.5 6.0 9.65 5.95 9.65 5.85 9.7 5.85 9.85 5.65 9.9 5.65 9.95 5.65 10.05 5.65 10.15 5.6 10.25 5.6 10.3 5.55 10.35 5.55 10.45 5.55 10.5 5.45 10.6 5.55 10.65 5.45 10.75 5.45 10.85 5.55 10.85 5.6 10.85 5.6 10.75 5.65 10.7 5.95 10.5 6.0 10.5 6.3 10.3 6.6 10.05 7.35 9.65 8.2 9.15 8.75 8.85 9.2 8.55 9.25 8.5 9.4 8.4 9.45 8.45 9.95 8.0 10.6 7.65 10.65 7.6 10.65 7.55 10.85 7.45 11.05 7.3 11.15 7.2 11.15 7.15 11.25 7.1 11.55 7.05 11.55 6.95 11.65 6.85 11.7 6.85 11.8 6.75 11.9 6.7 12.1 6.65 12.15 6.65 12.2 6.75 12.35 6.8 12.35 6.95 12.3 7.0 12.3 7.1 12.2 7.2 12.2 7.25 12.2 7.35 12.2 7.4 12.1 7.75 12.0 8.05 11.9 8.45 11.9 8.55 11.8 8.7 11.8 8.75 11.8 8.85 11.8 8.95 11.8 9.05 11.75 9.25 11.75 9.35 12.55 8.9 13.85 8.25 14.05 8.05 14.45 7.8 15.15 7.4 Q15.6 7.05 16.15 6.8 L16.35 6.55 16.75 6.35 17.35 5.9 18.0 5.5 18.25 5.3 18.3 5.15 18.65 5.05 18.7 5.0 18.7 4.9 19.1 4.7 19.3 4.6 19.3 4.5" fill="#ffffff" fill-rule="evenodd" stroke="none"/>
  </g>
</svg>
