<?xml version="1.0" encoding="UTF-8" standalone="no"?>
<svg xmlns:xlink="http://www.w3.org/1999/xlink" height="10.6px" width="22.2px" xmlns="http://www.w3.org/2000/svg">
  <g transform="matrix(1.0, 0.0, 0.0, 1.0, 2.2, 15.8)">
    <path d="M10.4 -15.55 L10.45 -15.45 11.65 -15.15 11.9 -15.1 12.95 -14.7 13.0 -14.7 13.05 -14.6 13.15 -14.55 13.7 -14.5 13.85 -14.35 13.9 -14.3 14.1 -14.15 14.25 -14.1 14.65 -13.95 14.9 -13.8 14.95 -13.8 15.3 -13.7 15.5 -13.75 16.35 -13.5 17.0 -13.35 17.05 -13.3 17.25 -13.25 17.4 -13.25 17.65 -13.1 18.0 -13.1 18.1 -13.05 18.25 -13.0 19.55 -12.9 19.75 -12.95 19.8 -12.95 20.0 -12.85 19.8 -10.0 19.75 -7.25 19.75 -7.15 19.75 -6.95 19.55 -5.2 19.3 -5.4 19.3 -5.5 19.1 -5.6 18.7 -5.8 18.7 -5.9 18.65 -5.95 18.3 -6.05 18.25 -6.2 18.0 -6.4 17.35 -6.8 16.75 -7.25 Q16.45 -7.3 16.35 -7.45 L16.15 -7.7 Q15.6 -7.95 15.15 -8.3 L14.45 -8.7 14.05 -8.95 13.85 -9.15 12.55 -9.8 11.75 -10.25 11.75 -10.15 11.8 -9.95 11.8 -9.85 11.8 -9.75 11.8 -9.65 11.8 -9.6 11.9 -9.45 11.9 -9.35 12.0 -8.95 12.1 -8.65 12.2 -8.3 12.2 -8.25 12.2 -8.15 12.2 -8.1 12.3 -8.0 12.3 -7.9 12.35 -7.85 12.35 -7.7 12.2 -7.65 12.15 -7.55 12.1 -7.55 11.9 -7.6 11.8 -7.65 11.7 -7.75 11.65 -7.75 11.55 -7.85 11.55 -7.95 11.25 -8.0 11.15 -8.05 11.15 -8.1 11.05 -8.2 10.85 -8.35 Q10.8 -8.35 10.65 -8.45 L10.65 -8.5 10.6 -8.55 9.95 -8.9 9.45 -9.35 9.4 -9.3 9.25 -9.4 9.2 -9.45 Q9.15 -9.7 8.75 -9.75 L8.2 -10.05 7.35 -10.55 6.6 -10.95 6.3 -11.2 6.0 -11.4 5.95 -11.4 5.65 -11.6 5.6 -11.65 5.6 -11.75 5.55 -11.75 5.45 -11.75 5.45 -11.65 5.55 -11.55 5.45 -11.5 5.55 -11.4 5.55 -11.35 5.55 -11.25 5.6 -11.2 5.6 -11.15 5.65 -11.05 5.65 -10.95 5.65 -10.85 5.65 -10.8 5.85 -10.75 5.85 -10.6 5.95 -10.55 6.0 -10.55 6.0 -10.4 6.05 -10.3 6.15 -10.3 6.15 -10.15 6.15 -10.05 6.15 -10.0 6.2 -9.9 6.2 -9.75 6.3 -9.75 6.4 -9.7 6.4 -9.6 6.3 -9.6 6.3 -9.5 6.45 -9.45 6.45 -9.4 6.5 -9.3 6.5 -9.15 6.65 -9.05 6.65 -9.0 6.5 -9.0 6.45 -8.95 6.0 -9.3 5.55 -9.65 5.45 -9.65 5.15 -9.85 5.15 -9.9 5.0 -10.0 4.9 -10.0 4.55 -10.25 4.5 -10.3 4.4 -10.35 4.3 -10.35 4.3 -10.4 4.25 -10.45 4.1 -10.45 3.95 -10.55 3.95 -10.6 3.75 -10.5 3.7 -10.7 3.65 -10.8 3.55 -10.85 3.5 -10.85 3.4 -10.9 3.4 -10.95 3.25 -11.0 3.2 -11.05 3.05 -11.15 2.9 -11.2 2.8 -11.35 2.7 -11.4 2.65 -11.45 2.35 -11.55 2.2 -11.65 2.15 -11.7 2.05 -11.65 2.05 -11.7 1.85 -11.8 1.85 -11.9 1.75 -11.9 1.65 -12.0 1.5 -12.1 1.5 -12.15 1.4 -12.15 1.3 -12.4 1.15 -12.6 1.0 -12.55 0.95 -12.6 0.9 -12.65 0.9 -12.75 0.8 -12.7 0.75 -12.75 0.65 -12.75 Q0.5 -12.85 0.45 -12.9 L0.45 -12.95 0.3 -12.95 0.25 -13.0 0.25 -13.1 0.15 -13.05 0.05 -13.15 -0.05 -13.15 -0.1 -13.25 -0.25 -13.35 -0.3 -13.3 -0.3 -13.35 -0.5 -13.4 -0.6 -13.6 -0.7 -13.65 -0.75 -13.6 -0.9 -13.7 -0.9 -13.75 -0.95 -13.8 -0.95 -13.85 -1.0 -13.85 -1.2 -13.95 -1.35 -14.0 -1.35 -14.05 -1.4 -14.1 -1.65 -14.15 -1.95 -14.4 -1.95 -14.45 -2.2 -14.5 -2.1 -14.55 -1.95 -14.5 -1.75 -14.5 -1.75 -14.45 -1.6 -14.35 -1.55 -14.35 -1.45 -14.2 -1.35 -14.15 -1.15 -14.2 -1.1 -14.05 -0.95 -14.05 -0.9 -14.05 -0.6 -14.0 -0.6 -13.95 -0.55 -13.9 -0.55 -13.85 -0.3 -13.8 -0.15 -13.75 -0.05 -13.65 0.25 -13.6 0.35 -13.6 0.5 -13.5 0.75 -13.35 0.95 -13.25 1.35 -13.15 1.6 -13.1 1.65 -13.05 1.85 -13.05 2.05 -12.9 2.25 -12.95 2.35 -12.9 2.55 -12.8 2.6 -12.75 2.85 -12.75 3.4 -12.5 3.75 -12.3 3.75 -12.25 3.85 -12.25 3.95 -12.3 4.05 -12.3 3.95 -12.35 4.05 -12.4 3.95 -12.45 3.95 -12.65 3.95 -12.75 3.95 -12.8 3.85 -12.85 3.95 -12.95 3.85 -12.95 3.85 -13.1 3.95 -13.2 3.95 -13.25 3.85 -13.35 3.85 -13.45 3.85 -13.65 3.85 -13.75 3.75 -13.8 3.75 -14.1 3.75 -14.2 3.75 -14.3 3.7 -14.4 3.7 -14.5 3.7 -14.6 3.7 -14.7 3.7 -14.8 3.7 -14.85 3.65 -14.95 3.55 -15.1 3.55 -15.25 3.5 -15.35 3.4 -15.3 3.5 -15.4 3.5 -15.45 3.7 -15.4 3.85 -15.4 3.85 -15.3 4.05 -15.25 4.1 -15.2 4.1 -15.15 4.15 -15.15 4.25 -15.05 Q4.3 -14.95 4.55 -14.9 L4.7 -14.8 4.75 -14.8 4.75 -14.7 4.9 -14.7 4.95 -14.7 5.4 -14.4 5.55 -14.3 5.6 -14.2 6.15 -14.1 6.5 -13.9 6.9 -13.75 6.9 -13.7 7.0 -13.65 7.05 -13.6 7.25 -13.6 7.55 -13.3 7.9 -13.15 7.9 -13.1 8.2 -12.9 8.4 -12.75 Q8.4 -12.65 8.5 -12.7 L8.75 -12.55 8.9 -12.45 8.9 -12.4 8.95 -12.3 9.15 -12.4 9.15 -12.35 9.2 -12.25 9.2 -12.15 9.35 -12.15 9.45 -12.15 9.55 -12.05 9.45 -12.05 9.65 -12.0 9.75 -12.0 9.8 -11.95 9.8 -12.1 9.8 -12.25 9.8 -12.3 9.8 -12.4 9.75 -12.5 9.75 -12.6 9.8 -12.7 9.8 -12.8 9.75 -12.8 9.75 -12.9 9.8 -12.9 9.75 -12.95 9.75 -13.0 9.75 -13.1 9.75 -13.2 9.75 -13.4 9.75 -13.5 9.75 -13.85 9.75 -13.95 9.65 -14.1 9.65 -14.2 9.65 -14.3 9.55 -14.4 9.55 -14.5 9.65 -14.55 9.55 -14.6 9.55 -14.65 9.55 -14.75 9.45 -14.75 9.45 -14.85 9.45 -15.05 9.45 -15.15 9.45 -15.3 9.45 -15.45 9.45 -15.55 9.55 -15.7 9.55 -15.75 9.65 -15.75 9.65 -15.8 9.8 -15.8 9.8 -15.7 9.95 -15.65 10.1 -15.55 10.25 -15.55 10.4 -15.55 M-0.55 -13.75 L-0.55 -13.7 -0.5 -13.65 -0.55 -13.75 M-0.6 -13.85 L-0.7 -13.9 -0.75 -13.95 -0.9 -13.9 -0.6 -13.8 -0.6 -13.85" fill="#ffffff" fill-rule="evenodd" stroke="none"/>
  </g>
</svg>
