<?xml version="1.0" encoding="UTF-8" standalone="no"?>
<svg xmlns:xlink="http://www.w3.org/1999/xlink" height="9.75px" width="16.95px" xmlns="http://www.w3.org/2000/svg">
  <g transform="matrix(1.0, 0.0, 0.0, 1.0, -3.1, 14.9)">
    <path d="M12.25 -14.8 L12.35 -14.8 12.5 -14.7 12.6 -14.7 12.7 -14.7 12.75 -14.65 13.65 -14.45 13.85 -14.4 14.65 -14.1 14.7 -14.1 14.75 -14.0 14.8 -13.95 15.25 -13.95 15.35 -13.8 15.4 -13.75 15.55 -13.65 15.65 -13.6 15.95 -13.45 16.15 -13.35 16.2 -13.35 16.45 -13.3 16.6 -13.35 17.25 -13.15 17.75 -13.05 17.8 -13.0 17.95 -13.0 18.05 -13.0 18.25 -12.85 18.5 -12.9 18.6 -12.85 18.7 -12.8 19.7 -12.85 19.85 -12.9 19.9 -12.9 20.05 -12.8 19.9 -9.95 19.85 -7.2 19.85 -7.1 19.85 -6.9 19.7 -5.15 Q19.55 -5.25 19.5 -5.3 L19.5 -5.4 19.35 -5.5 19.05 -5.65 19.05 -5.75 19.0 -5.8 18.75 -5.9 18.7 -6.0 18.5 -6.2 18.0 -6.55 17.55 -6.95 Q17.35 -7.0 17.25 -7.1 L17.1 -7.35 16.35 -7.85 15.8 -8.2 15.5 -8.45 15.35 -8.6 14.35 -9.15 13.75 -9.55 13.75 -9.45 13.8 -9.25 13.8 -9.15 13.8 -9.05 13.8 -8.95 13.8 -8.9 13.85 -8.75 13.85 -8.65 13.95 -8.25 14.0 -7.95 14.1 -7.6 14.1 -7.55 14.1 -7.45 14.1 -7.4 14.15 -7.35 14.15 -7.25 14.2 -7.2 14.2 -7.05 14.1 -6.95 14.05 -6.85 14.0 -6.85 13.85 -6.9 13.8 -6.95 13.7 -7.05 13.65 -7.05 13.6 -7.1 13.6 -7.2 13.35 -7.25 13.3 -7.3 13.3 -7.35 13.2 -7.45 13.05 -7.55 12.9 -7.65 12.9 -7.7 12.85 -7.75 12.35 -8.05 12.0 -8.45 11.95 -8.4 11.85 -8.5 11.8 -8.55 11.45 -8.8 11.05 -9.05 10.4 -9.45 9.8 -9.8 9.6 -10.05 9.35 -10.2 9.3 -10.2 9.1 -10.4 9.05 -10.45 9.05 -10.55 9.0 -10.5 8.95 -10.5 8.95 -10.4 9.0 -10.3 8.95 -10.25 9.0 -10.15 9.0 -10.1 9.0 -10.0 9.05 -10.0 9.05 -9.95 9.1 -9.85 9.1 -9.75 9.1 -9.65 9.1 -9.6 9.25 -9.55 9.25 -9.4 9.3 -9.35 9.35 -9.35 9.35 -9.2 9.4 -9.1 9.45 -9.1 9.45 -8.95 9.45 -8.85 9.45 -8.8 9.5 -8.75 9.5 -8.6 9.6 -8.6 9.65 -8.55 9.65 -8.45 9.6 -8.45 9.6 -8.35 9.7 -8.3 9.7 -8.25 9.75 -8.15 9.75 -8.0 9.85 -7.9 9.85 -7.85 9.75 -7.85 9.7 -7.8 9.35 -8.1 9.0 -8.4 8.95 -8.4 8.7 -8.6 8.7 -8.65 8.6 -8.75 8.5 -8.7 8.25 -8.95 8.2 -9.0 8.15 -9.05 8.05 -9.0 8.05 -9.05 8.0 -9.1 7.9 -9.1 7.8 -9.2 7.8 -9.25 7.65 -9.15 7.6 -9.3 7.55 -9.4 7.5 -9.45 7.45 -9.45 7.35 -9.5 7.35 -9.55 7.25 -9.6 7.2 -9.65 7.1 -9.7 7.0 -9.75 6.9 -9.9 6.85 -9.95 6.8 -10.0 6.55 -10.05 6.45 -10.15 6.4 -10.2 6.35 -10.15 6.35 -10.2 6.2 -10.25 6.2 -10.35 6.1 -10.35 6.05 -10.45 5.9 -10.55 5.9 -10.6 5.85 -10.6 5.75 -10.8 5.65 -11.0 5.55 -10.95 5.5 -11.0 5.45 -11.05 5.45 -11.15 5.4 -11.1 5.35 -11.15 5.25 -11.1 5.1 -11.25 5.1 -11.3 5.0 -11.3 4.95 -11.35 4.95 -11.45 4.9 -11.4 4.8 -11.45 4.75 -11.45 4.7 -11.55 4.6 -11.65 4.55 -11.6 4.55 -11.65 4.4 -11.7 4.35 -11.75 4.3 -11.85 4.25 -11.9 4.2 -11.85 4.1 -11.95 4.1 -12.0 4.05 -12.05 4.05 -12.1 4.0 -12.1 3.85 -12.15 3.75 -12.2 3.75 -12.25 3.7 -12.3 3.5 -12.35 3.3 -12.55 3.3 -12.6 3.1 -12.65 3.15 -12.7 3.3 -12.65 3.45 -12.65 3.45 -12.6 3.55 -12.55 3.6 -12.55 3.65 -12.4 3.75 -12.35 3.9 -12.4 3.95 -12.3 4.05 -12.3 4.1 -12.3 4.3 -12.25 4.3 -12.2 4.35 -12.15 4.35 -12.1 4.55 -12.1 4.65 -12.05 4.75 -11.95 4.95 -11.95 5.05 -11.95 5.15 -11.85 5.35 -11.75 5.5 -11.65 5.8 -11.6 6.0 -11.55 6.05 -11.5 6.2 -11.5 6.35 -11.4 6.5 -11.45 6.55 -11.4 6.7 -11.3 6.75 -11.3 6.95 -11.3 7.35 -11.1 7.65 -10.95 7.65 -10.9 7.7 -10.9 7.8 -10.95 7.85 -10.95 7.8 -11.0 7.85 -11.05 7.8 -11.1 7.8 -11.3 7.8 -11.4 7.8 -11.45 7.7 -11.5 7.8 -11.6 7.7 -11.6 7.7 -11.75 7.8 -11.85 7.8 -11.9 7.7 -12.0 7.7 -12.1 7.7 -12.3 7.7 -12.4 7.65 -12.45 7.65 -12.75 7.65 -12.85 7.65 -12.95 7.6 -13.0 7.6 -13.1 7.6 -13.2 7.6 -13.3 7.6 -13.4 7.6 -13.45 7.55 -13.55 7.5 -13.7 7.5 -13.85 7.45 -13.95 7.35 -13.9 7.45 -14.0 7.45 -14.05 7.6 -14.0 7.7 -14.05 7.7 -13.95 7.85 -13.9 7.9 -13.85 7.9 -13.8 7.95 -13.8 8.0 -13.7 Q8.05 -13.6 8.25 -13.6 L8.35 -13.5 8.4 -13.5 8.4 -13.4 8.5 -13.4 8.55 -13.4 8.9 -13.15 9.0 -13.05 9.05 -13.0 9.45 -12.9 9.75 -12.75 10.05 -12.65 10.05 -12.6 10.1 -12.55 10.15 -12.5 10.3 -12.5 10.55 -12.25 Q10.7 -12.15 10.8 -12.1 L10.8 -12.05 11.05 -11.9 11.2 -11.75 11.25 -11.7 11.45 -11.6 11.55 -11.5 11.55 -11.45 11.6 -11.35 11.75 -11.45 11.75 -11.4 11.8 -11.35 11.8 -11.25 11.9 -11.25 12.0 -11.25 12.05 -11.15 12.0 -11.15 12.15 -11.1 12.2 -11.1 12.25 -11.05 12.25 -11.2 12.25 -11.35 12.25 -11.4 12.25 -11.5 12.2 -11.6 12.2 -11.7 12.25 -11.8 12.25 -11.9 12.2 -11.9 12.2 -12.0 12.25 -12.0 12.2 -12.05 12.2 -12.1 12.2 -12.2 12.2 -12.3 12.2 -12.5 12.2 -12.6 12.2 -12.95 12.2 -13.05 12.15 -13.2 12.15 -13.3 12.15 -13.4 12.05 -13.5 12.05 -13.6 12.15 -13.65 12.05 -13.7 12.05 -13.75 12.05 -13.85 12.0 -13.85 12.0 -13.95 12.0 -14.15 12.0 -14.25 12.0 -14.4 12.0 -14.55 12.0 -14.65 12.05 -14.8 12.05 -14.85 12.15 -14.85 12.15 -14.9 12.25 -14.9 12.25 -14.8 M4.2 -12.2 L4.1 -12.15 4.3 -12.05 4.3 -12.1 4.25 -12.15 4.2 -12.2 M4.4 -11.95 L4.35 -12.0 4.35 -11.95 4.4 -11.95" fill="#ffffff" fill-rule="evenodd" stroke="none"/>
  </g>
</svg>
