<?xml version="1.0" encoding="UTF-8" standalone="no"?>
<svg xmlns:xlink="http://www.w3.org/1999/xlink" height="17.25px" width="69.2px" xmlns="http://www.w3.org/2000/svg">
  <g transform="matrix(1.0, 0.0, 0.0, 1.0, 48.9, 23.45)">
    <path d="M11.35 -14.2 L11.75 -14.15 12.45 -14.0 13.1 -13.85 14.2 -13.7 14.5 -13.6 14.85 -13.5 15.05 -13.4 19.1 -12.9 19.6 -12.85 20.05 -12.75 20.3 -12.65 19.9 -10.2 Q19.5 -8.75 19.65 -7.8 L19.65 -7.7 19.6 -7.65 19.65 -7.55 18.85 -6.2 18.45 -6.35 18.45 -6.45 17.45 -6.7 16.4 -7.0 16.4 -7.05 16.3 -7.15 16.0 -7.15 15.2 -7.45 14.85 -7.55 14.2 -7.85 12.0 -8.5 10.25 -9.05 8.95 -9.45 8.5 -9.7 5.6 -10.65 3.0 -11.35 1.95 -11.75 1.15 -12.0 -2.75 -13.15 -5.15 -13.8 -5.15 -13.75 -5.1 -13.5 -5.0 -13.45 -5.0 -13.4 -5.0 -13.3 -5.0 -13.2 Q-5.1 -13.15 -4.75 -13.05 L-4.65 -12.95 -4.55 -12.55 -4.3 -12.25 -3.85 -11.9 -3.7 -11.85 -3.7 -11.8 -3.85 -11.75 -3.85 -11.7 -3.55 -11.6 -3.55 -11.55 -3.5 -11.5 -3.5 -11.35 -3.7 -11.3 -3.95 -11.25 -4.3 -11.3 -4.75 -11.45 -5.1 -11.45 -5.1 -11.5 -5.55 -11.7 -5.75 -11.75 -5.9 -11.75 -5.9 -11.8 -6.0 -11.9 -6.8 -12.1 -7.0 -12.15 -7.2 -12.2 -7.55 -12.35 -7.85 -12.35 -8.0 -12.45 -8.65 -12.7 Q-8.95 -12.8 -8.95 -12.85 L-10.85 -13.35 -12.3 -14.0 -12.65 -14.0 -12.9 -14.1 Q-13.1 -14.1 -13.15 -14.2 L-14.55 -14.6 -16.15 -15.1 -19.0 -15.9 -21.25 -16.6 -22.25 -16.95 -23.1 -17.2 -23.4 -17.25 -24.1 -17.55 -24.5 -17.65 -24.5 -17.7 -24.65 -17.75 -24.9 -17.75 -24.9 -17.65 -24.65 -17.55 -24.8 -17.5 -24.65 -17.4 -24.65 -17.3 -24.5 -17.25 -24.45 -17.2 -24.25 -17.1 -24.25 -17.05 -24.1 -16.95 -24.1 -16.85 -24.1 -16.8 -23.85 -16.75 -23.7 -16.7 -23.85 -16.65 -23.7 -16.6 -23.45 -16.55 -23.1 -16.45 -23.1 -16.35 -23.3 -16.35 -23.05 -16.25 -22.85 -16.2 -22.85 -16.15 -22.65 -16.0 -22.65 -15.9 -22.6 -15.85 -22.6 -15.8 -22.45 -15.7 -22.3 -15.65 -22.0 -15.55 -22.0 -15.45 -22.25 -15.5 -21.85 -15.35 -21.7 -15.3 -21.65 -15.2 -21.65 -15.15 -21.5 -15.05 -21.2 -14.95 -21.2 -14.9 -21.5 -14.85 -21.85 -14.9 -23.3 -15.4 -24.65 -15.9 -24.8 -15.9 -25.75 -16.25 -25.75 -16.3 -26.05 -16.3 -26.3 -16.4 -26.75 -16.5 -27.75 -16.9 -28.2 -16.9 -28.3 -17.05 -28.5 -17.1 -28.65 -17.1 -28.8 -17.15 -29.2 -17.2 -29.6 -17.35 -29.6 -17.4 -29.75 -17.4 -30.15 -17.45 -30.4 -17.55 -30.55 -17.7 -30.8 -17.7 -31.05 -17.85 -31.2 -17.85 -31.4 -17.9 -31.65 -18.05 -31.85 -18.05 -32.2 -18.15 -32.4 -18.25 -32.75 -18.35 -33.25 -18.55 -33.35 -18.6 -33.75 -18.7 -34.7 -18.9 -35.15 -19.05 -35.35 -19.05 -35.5 -19.15 -35.95 -19.25 -35.95 -19.3 -36.05 -19.35 -36.05 -19.4 -36.45 -19.45 -36.75 -19.55 -37.05 -19.7 -37.1 -19.75 -37.5 -19.8 -37.85 -20.1 -38.45 -20.3 -38.7 -20.3 -38.95 -20.4 -39.15 -20.5 -39.15 -20.55 -39.25 -20.55 -39.7 -20.6 -39.95 -20.7 -40.6 -20.9 -40.85 -20.95 -41.35 -21.1 -41.35 -21.15 -41.4 -21.15 -41.8 -21.25 -41.95 -21.3 -42.15 -21.4 -42.2 -21.4 -42.65 -21.5 -43.0 -21.6 -43.4 -21.75 -43.6 -21.8 -43.8 -21.9 -44.05 -21.95 -44.35 -22.0 -44.5 -22.1 -44.65 -22.15 -44.8 -22.25 -44.85 -22.3 -45.05 -22.3 -45.75 -22.45 -45.9 -22.55 -46.0 -22.6 -46.25 -22.65 -47.25 -22.95 -47.75 -23.15 -48.9 -23.4 -48.8 -23.4 -48.55 -23.4 -47.75 -23.25 -47.5 -23.15 -47.45 -23.15 -47.0 -23.0 -46.7 -23.0 -46.4 -22.75 -45.9 -22.7 -45.6 -22.65 -45.3 -22.55 -44.85 -22.5 -44.65 -22.45 -44.0 -22.3 -43.8 -22.25 -43.6 -22.1 -43.55 -22.1 -42.8 -22.0 -42.45 -21.9 -41.85 -21.7 -41.15 -21.6 -40.75 -21.45 -40.3 -21.3 -39.7 -21.1 -38.9 -20.95 -37.7 -20.8 -36.95 -20.5 -36.75 -20.5 -35.95 -20.4 Q-35.95 -20.35 -35.65 -20.25 L-34.85 -20.1 -34.55 -20.1 -34.05 -19.85 -33.85 -19.85 -33.05 -19.75 -31.2 -19.3 -30.15 -19.0 -30.05 -18.95 -29.9 -18.95 -29.75 -18.9 -29.35 -18.8 -29.6 -18.95 -29.45 -18.9 -29.6 -19.0 -29.75 -19.05 -29.75 -19.3 -29.9 -19.45 -29.75 -19.45 -29.9 -19.5 -29.9 -19.65 -29.75 -19.65 -29.75 -19.7 -29.9 -19.85 -29.9 -19.95 -29.9 -20.05 -29.9 -20.1 -29.9 -20.25 -30.05 -20.3 -30.15 -20.4 -30.05 -20.45 -30.15 -20.5 -30.15 -20.55 -30.15 -20.65 -30.05 -20.65 -30.15 -20.75 -30.35 -20.85 -30.35 -20.9 -30.35 -21.0 -30.4 -21.0 -30.4 -21.15 -30.4 -21.25 -30.55 -21.3 -30.8 -21.45 -30.85 -21.55 -31.15 -21.75 -31.4 -21.75 -31.15 -21.8 -31.05 -21.85 -30.4 -21.75 -29.9 -21.65 -29.9 -21.55 -29.45 -21.4 -29.2 -21.35 -29.0 -21.35 -28.95 -21.3 -28.8 -21.15 -27.75 -20.95 -27.2 -20.75 -27.15 -20.75 Q-27.15 -20.65 -26.95 -20.65 L-26.75 -20.55 -26.5 -20.5 -25.25 -20.1 -24.65 -20.0 -24.45 -19.85 -22.65 -19.45 -21.5 -19.15 -20.4 -18.95 -20.4 -18.85 -20.2 -18.8 -20.05 -18.75 -19.4 -18.6 -18.2 -18.25 -17.35 -17.95 -17.2 -17.9 -16.4 -17.6 -15.75 -17.45 -15.35 -17.3 -14.7 -17.1 -14.2 -16.95 -14.2 -16.9 -13.9 -16.8 -13.5 -16.8 -13.6 -16.7 -13.35 -16.65 -13.15 -16.5 -12.85 -16.5 -12.4 -16.45 -12.1 -16.35 -12.3 -16.35 -11.8 -16.2 -11.6 -16.15 -11.45 -16.15 -11.3 -16.25 -11.3 -16.35 -11.45 -16.4 -11.45 -16.5 -11.6 -16.6 -11.6 -16.7 -11.45 -16.8 -11.45 -16.85 -11.6 -16.9 -11.6 -16.95 -11.45 -16.95 -11.6 -17.0 -11.65 -17.05 -11.65 -17.15 -11.6 -17.2 -11.6 -17.4 -11.65 -17.4 -11.6 -17.45 -11.6 -17.5 -11.6 -17.6 -11.65 -17.7 -11.6 -17.75 -11.65 -17.8 -11.65 -17.9 -11.8 -18.05 -12.05 -18.15 Q-11.8 -18.15 -12.05 -18.2 L-12.1 -18.4 -12.1 -18.5 -12.05 -18.45 -12.1 -18.6 -12.1 -18.7 -12.3 -18.7 -12.3 -18.8 -12.3 -18.9 -12.4 -18.95 -12.3 -19.05 -12.4 -19.2 -12.3 -19.3 -12.3 -19.4 -12.1 -19.5 -12.1 -19.6 -11.8 -19.5 -11.8 -19.55 -11.45 -19.45 -11.3 -19.35 -11.0 -19.35 -10.85 -19.25 -10.45 -19.15 -9.9 -19.05 -9.45 -19.0 -9.2 -18.9 -5.7 -18.2 -4.65 -18.0 -1.65 -17.25 -1.35 -17.2 -1.05 -17.1 -0.9 -17.0 0.85 -16.65 1.25 -16.5 1.55 -16.4 2.2 -16.25 2.65 -16.1 3.75 -15.75 4.55 -15.65 4.8 -15.55 5.65 -15.4 6.45 -15.25 8.95 -14.75 11.1 -14.3 11.35 -14.2 M-44.2 -22.2 L-44.25 -22.2 -44.2 -22.15 -44.2 -22.2 M-43.55 -21.95 L-43.4 -21.95 -43.6 -22.0 -43.55 -21.95" fill="#ffffff" fill-rule="evenodd" stroke="none"/>
  </g>
</svg>
