<?xml version="1.0" encoding="UTF-8" standalone="no"?>
<svg xmlns:xlink="http://www.w3.org/1999/xlink" height="14.25px" width="36.15px" xmlns="http://www.w3.org/2000/svg">
  <g transform="matrix(1.0, 0.0, 0.0, 1.0, 16.15, 18.6)">
    <path d="M10.8 -15.6 L11.35 -15.3 11.85 -15.2 11.9 -15.15 12.35 -15.05 12.8 -14.95 14.15 -14.6 15.2 -14.35 15.3 -14.25 15.5 -14.2 15.9 -14.1 16.25 -14.0 16.85 -13.9 16.95 -13.85 17.2 -13.75 17.3 -13.7 19.4 -13.55 19.65 -13.5 19.85 -13.45 20.0 -13.35 19.8 -9.95 Q19.6 -7.95 19.7 -6.65 L19.7 -6.55 19.7 -6.5 19.65 -6.45 19.65 -6.4 19.7 -6.3 19.25 -4.35 19.0 -4.55 19.0 -4.65 Q18.8 -4.65 18.6 -4.8 L18.0 -5.1 18.0 -5.2 17.95 -5.25 17.75 -5.3 17.35 -5.5 17.2 -5.65 16.85 -5.9 15.7 -6.5 14.75 -7.1 Q14.35 -7.2 14.15 -7.4 13.9 -7.5 13.8 -7.65 12.95 -8.05 12.3 -8.55 11.85 -8.95 11.0 -9.15 L10.45 -9.5 10.0 -9.75 7.95 -10.75 Q7.35 -11.1 6.7 -11.4 L6.7 -11.3 6.75 -11.0 6.85 -10.85 6.85 -10.8 6.85 -10.7 6.85 -10.6 Q6.75 -10.5 6.9 -10.35 L6.95 -10.25 7.05 -9.7 7.2 -9.35 7.45 -8.95 7.5 -8.9 7.5 -8.8 7.45 -8.75 7.45 -8.7 7.55 -8.6 7.55 -8.45 7.65 -8.4 7.65 -8.35 7.65 -8.2 7.5 -8.1 7.35 -8.05 7.2 -8.05 6.9 -8.15 6.75 -8.2 6.75 -8.25 6.55 -8.4 6.4 -8.4 6.3 -8.45 6.3 -8.55 6.25 -8.6 5.85 -8.75 5.8 -8.8 5.65 -8.9 5.45 -9.0 5.35 -9.05 5.25 -9.15 4.85 -9.35 4.85 -9.4 4.75 -9.5 Q4.15 -9.7 3.75 -9.95 L3.05 -10.55 2.8 -10.6 2.65 -10.65 2.5 -10.7 1.8 -11.15 0.95 -11.55 Q0.15 -11.8 -0.5 -12.2 L-1.7 -12.9 -2.15 -13.2 -2.7 -13.45 -2.8 -13.5 -3.15 -13.8 -3.4 -13.85 -3.4 -13.95 -3.45 -14.0 -3.6 -14.0 -3.6 -13.9 -3.6 -13.85 -3.45 -13.7 -3.55 -13.65 -3.45 -13.55 -3.45 -13.45 -3.45 -13.35 -3.4 -13.3 -3.35 -13.25 -3.2 -13.15 -3.2 -13.05 -3.15 -13.0 -3.15 -12.9 -3.15 -12.85 -3.0 -12.7 -2.95 -12.65 -3.0 -12.6 -2.95 -12.5 -2.9 -12.5 -2.7 -12.45 -2.7 -12.3 -2.75 -12.25 -2.6 -12.15 -2.5 -12.15 -2.5 -12.1 -2.45 -11.9 -2.45 -11.8 -2.45 -11.75 -2.35 -11.7 -2.35 -11.65 -2.3 -11.45 -2.25 -11.4 -2.1 -11.4 -2.1 -11.3 -2.15 -11.25 -2.15 -11.15 -2.05 -11.1 -1.95 -11.0 -1.9 -10.95 -1.9 -10.9 -1.85 -10.75 -1.65 -10.65 -1.65 -10.6 -1.85 -10.55 -2.05 -10.5 -2.75 -11.0 -3.45 -11.4 -3.55 -11.45 -4.0 -11.75 -4.0 -11.8 -4.2 -11.85 -4.35 -11.9 -4.55 -11.95 -5.1 -12.3 -5.2 -12.35 -5.3 -12.4 -5.4 -12.5 -5.45 -12.5 -5.5 -12.55 -5.65 -12.55 -5.85 -12.6 -6.05 -12.7 -6.05 -12.8 -6.1 -12.8 -6.35 -12.8 -6.5 -12.9 -6.55 -13.05 -6.65 -13.1 -6.75 -13.15 -6.9 -13.25 -6.95 -13.25 -7.15 -13.35 -7.2 -13.35 -7.35 -13.5 -7.5 -13.55 -7.7 -13.65 -7.95 -13.85 -8.0 -13.9 -8.2 -14.0 -8.75 -14.15 -8.95 -14.25 -9.05 -14.3 -9.15 -14.35 -9.15 -14.4 -9.4 -14.45 -9.4 -14.5 -9.45 -14.55 -9.45 -14.6 -9.65 -14.65 -9.8 -14.75 -9.95 -14.85 -10.0 -14.9 -10.0 -14.95 -10.2 -15.05 -10.4 -15.25 -10.65 -15.5 -10.85 -15.5 -10.95 -15.55 -11.05 -15.65 -11.05 -15.75 -11.1 -15.75 -11.3 -15.8 -11.45 -15.85 -11.8 -16.0 -11.75 -16.05 -11.8 -16.05 -11.95 -16.1 -12.15 -16.2 -12.15 -16.25 -12.25 -16.25 -12.4 -16.3 -12.55 -16.35 -12.6 -16.45 -12.7 -16.45 -12.9 -16.6 -13.0 -16.7 -13.25 -16.75 -13.4 -16.85 -13.45 -16.95 -13.6 -17.0 -13.75 -17.0 -13.8 -17.1 -13.9 -17.15 -14.0 -17.3 -14.05 -17.35 -14.15 -17.35 -14.45 -17.45 -14.55 -17.5 -14.65 -17.6 -14.8 -17.65 -15.25 -17.85 -15.55 -18.1 -15.55 -18.15 -16.15 -18.3 -16.05 -18.3 -15.95 -18.35 -15.55 -18.2 -15.45 -18.15 -15.3 -18.15 -15.1 -18.05 -15.0 -18.0 -14.85 -17.8 -14.55 -17.75 -14.4 -17.7 -14.25 -17.6 -14.05 -17.6 -13.9 -17.55 -13.55 -17.4 -13.45 -17.4 -13.4 -17.3 -13.35 -17.25 -12.95 -17.25 -12.75 -17.05 -12.5 -16.95 -12.1 -16.9 -11.9 -16.8 -11.6 -16.65 -11.3 -16.5 -10.9 -16.35 -10.3 -16.25 -9.85 -16.05 -9.8 -16.0 -9.4 -15.95 -9.2 -15.9 -8.8 -15.8 -8.65 -15.75 -8.35 -15.55 -8.3 -15.55 -7.9 -15.5 -6.9 -15.15 -6.35 -14.9 -6.25 -14.85 -6.2 -14.8 -6.1 -14.8 -5.9 -14.75 -6.05 -14.85 -6.0 -14.9 -6.05 -14.95 -6.1 -15.05 -6.1 -15.2 -6.1 -15.3 -6.1 -15.4 -6.2 -15.5 -6.1 -15.55 -6.2 -15.65 -6.2 -15.8 -6.1 -15.9 -6.2 -16.1 -6.2 -16.25 -6.2 -16.35 -6.2 -16.45 -6.2 -16.6 -6.25 -16.7 -6.35 -16.85 -6.25 -16.9 -6.35 -16.95 -6.35 -17.05 -6.35 -17.15 -6.25 -17.2 -6.35 -17.3 -6.45 -17.4 -6.45 -17.45 -6.45 -17.55 -6.5 -17.6 -6.5 -17.7 -6.5 -17.8 -6.5 -17.9 -6.55 -18.05 -6.65 -18.15 -6.7 -18.35 -6.85 -18.5 -6.95 -18.5 -6.75 -18.6 -6.5 -18.55 -6.2 -18.5 -6.2 -18.45 -6.0 -18.3 -5.85 -18.25 -5.8 -18.2 -5.7 -18.15 -5.65 -18.1 -5.1 -17.85 -4.85 -17.7 -4.75 -17.7 -4.65 -17.6 -4.55 -17.55 -4.4 -17.5 -3.75 -17.1 -3.45 -17.0 -3.35 -16.9 -2.45 -16.65 Q-2.25 -16.45 -1.85 -16.4 L-1.25 -16.2 -1.25 -16.1 -1.15 -16.05 -1.05 -16.0 -0.7 -15.9 -0.05 -15.5 0.35 -15.3 0.4 -15.25 0.85 -14.95 1.2 -14.75 1.4 -14.7 1.7 -14.5 2.05 -14.4 2.05 -14.3 2.15 -14.2 2.35 -14.2 2.3 -14.1 2.45 -14.05 2.5 -13.95 2.7 -13.95 2.95 -13.9 3.1 -13.75 3.05 -13.75 3.25 -13.7 3.35 -13.65 3.45 -13.65 3.55 -13.8 3.55 -14.0 3.45 -14.0 3.45 -14.1 3.35 -14.25 3.35 -14.3 3.35 -14.4 3.45 -14.5 3.45 -14.6 3.35 -14.65 3.35 -14.75 3.45 -14.75 Q3.35 -14.75 3.35 -14.8 L3.3 -14.85 3.3 -14.95 3.3 -15.0 3.35 -15.1 3.35 -15.3 3.3 -15.35 3.35 -15.45 3.35 -15.6 3.3 -15.75 3.35 -15.8 3.35 -15.85 3.3 -15.9 3.3 -16.0 3.25 -16.25 3.15 -16.35 3.15 -16.45 3.1 -16.6 3.1 -16.7 3.15 -16.75 3.1 -16.85 3.1 -16.9 3.1 -17.0 3.05 -17.0 3.05 -17.1 3.05 -17.15 3.05 -17.25 Q2.95 -17.25 2.95 -17.3 L2.95 -17.4 3.05 -17.45 2.95 -17.65 3.05 -17.8 3.05 -17.95 3.1 -18.15 3.1 -18.2 3.25 -18.2 3.25 -18.25 3.45 -18.15 3.55 -18.1 3.7 -18.1 3.75 -18.0 3.95 -17.9 4.2 -17.85 4.45 -17.75 4.6 -17.75 6.45 -17.25 6.95 -17.1 8.55 -16.55 8.7 -16.5 8.85 -16.4 8.95 -16.3 9.85 -16.1 10.05 -15.9 10.2 -15.9 10.6 -15.7 10.8 -15.6 M-13.75 -17.35 L-13.55 -17.25 -13.6 -17.3 -13.65 -17.35 -13.75 -17.35 M-13.35 -17.05 L-13.25 -17.05 -13.4 -17.1 -13.35 -17.05" fill="#ffffff" fill-rule="evenodd" stroke="none"/>
  </g>
</svg>
