<?xml version="1.0" encoding="UTF-8" standalone="no"?>
<svg xmlns:xlink="http://www.w3.org/1999/xlink" height="13.35px" width="42.95px" xmlns="http://www.w3.org/2000/svg">
  <g transform="matrix(1.0, 0.0, 0.0, 1.0, 22.95, -4.35)">
    <path d="M-20.25 16.8 L-20.1 16.8 -20.05 16.75 -20.0 16.7 -20.25 16.8 M16.85 5.4 L17.3 5.25 17.55 5.2 17.6 5.15 17.6 5.1 Q17.95 4.9 18.3 4.8 18.55 4.65 18.8 4.65 L18.8 4.6 19.1 4.35 19.65 6.0 19.55 6.05 19.55 6.1 19.65 6.15 19.65 6.2 19.65 6.3 Q19.5 7.35 19.75 9.0 L20.0 11.85 19.8 11.95 19.55 12.0 19.25 12.0 16.75 12.25 16.65 12.3 16.35 12.4 16.25 12.45 15.5 12.55 15.1 12.7 14.6 12.75 14.4 12.8 14.25 12.9 13.0 13.15 11.4 13.55 10.85 13.6 10.35 13.75 10.25 13.8 9.7 13.85 9.0 14.15 8.8 14.25 8.3 14.4 8.15 14.4 7.9 14.6 6.8 14.8 6.7 14.9 6.5 15.0 6.35 15.05 4.45 15.55 3.85 15.75 1.65 16.25 1.45 16.25 1.15 16.35 0.85 16.4 0.6 16.45 0.55 16.55 0.4 16.6 0.25 16.65 0.0 16.75 0.0 16.7 -0.15 16.7 -0.15 16.65 -0.2 16.5 -0.2 16.35 Q-0.2 16.3 -0.35 16.25 L-0.2 16.05 -0.35 16.0 -0.35 15.95 -0.2 15.9 -0.2 15.8 -0.2 15.7 -0.15 15.7 -0.15 15.6 -0.15 15.55 -0.1 15.5 -0.15 15.45 -0.15 15.35 -0.1 15.25 -0.1 15.15 0.0 15.05 0.1 14.85 0.1 14.75 0.15 14.75 0.15 14.7 0.1 14.65 0.15 14.5 0.15 14.4 0.1 14.3 0.15 14.25 0.15 14.1 0.1 14.0 0.1 13.9 0.15 13.85 0.15 13.75 0.25 13.7 0.25 13.6 0.15 13.5 0.15 13.4 0.25 13.3 0.25 13.2 0.4 13.2 0.4 13.05 0.25 12.9 0.15 12.9 0.0 12.95 -0.2 13.0 -0.15 13.0 -0.35 13.1 -0.65 13.15 -0.85 13.2 -0.95 13.3 -1.1 13.35 -1.05 13.4 -1.3 13.4 -1.4 13.5 -1.4 13.55 -1.8 13.65 -2.2 13.85 -2.4 13.9 -2.85 14.1 -3.35 14.4 -3.45 14.4 -3.9 14.6 -4.7 14.95 -5.1 15.05 -5.2 15.1 -5.35 15.15 -5.35 15.2 -6.05 15.45 -6.75 15.65 -7.85 15.9 -7.95 16.0 -8.3 16.1 -9.1 16.45 -9.25 16.5 -9.4 16.55 -9.5 16.65 -9.65 16.65 -9.95 16.8 -10.6 17.0 -10.65 17.1 -10.75 17.15 -10.8 17.2 -11.0 17.2 -11.25 17.35 -11.25 17.4 -11.6 17.45 -11.9 17.5 -12.15 17.45 -12.0 17.45 -11.85 17.25 -11.75 17.1 -11.65 17.0 -11.6 16.9 -11.6 16.8 -11.6 16.65 -11.55 16.6 -11.55 16.5 -11.55 16.45 -11.4 16.4 -11.3 16.3 -11.4 16.25 -11.4 16.1 -11.3 16.05 -11.4 16.0 -11.3 15.9 -11.25 15.8 -11.25 15.7 -11.25 15.6 -11.25 15.5 -11.25 15.4 -11.1 15.2 -11.25 15.15 -11.25 15.0 -11.1 14.95 -11.25 14.9 -11.1 14.8 -11.1 14.7 -11.1 14.5 -11.0 14.4 -11.05 14.35 -10.9 14.25 -11.1 14.3 -11.25 14.3 -11.3 14.35 -11.4 14.4 -12.05 14.65 Q-12.8 14.75 -13.25 15.0 L-13.75 15.05 -13.8 15.05 -14.15 15.2 -14.35 15.25 -14.8 15.35 -15.05 15.4 -15.55 15.45 -15.6 15.55 -16.1 15.7 -16.85 15.85 -17.3 15.95 -17.65 16.1 -18.05 16.2 -18.25 16.35 -18.75 16.4 -19.05 16.5 -19.3 16.65 -19.75 16.7 -19.8 16.75 -19.9 16.8 -20.0 16.8 -20.4 16.95 -20.6 17.05 -20.85 17.05 -21.0 17.1 -21.2 17.15 -21.55 17.2 -21.7 17.35 -21.85 17.45 -22.1 17.55 -22.25 17.55 -22.4 17.6 -22.85 17.7 -22.95 17.65 -22.4 17.55 -22.4 17.5 -22.0 17.3 -21.5 17.1 -21.3 17.05 -21.2 16.95 -21.05 16.9 -20.7 16.85 -20.6 16.85 -20.55 16.8 -20.4 16.6 -20.3 16.55 -20.25 16.5 -20.05 16.5 -19.9 16.45 -19.8 16.35 -19.65 16.3 -19.35 16.25 -19.2 16.1 -19.0 16.0 -18.85 16.0 -18.8 15.9 -18.65 15.85 -18.45 15.8 -18.35 15.8 -18.35 15.75 -18.1 15.7 -17.9 15.6 -17.85 15.6 -17.9 15.55 -17.5 15.45 -17.3 15.4 -17.1 15.35 -17.0 15.35 -17.0 15.25 -16.9 15.2 -16.8 15.1 -16.55 15.1 -16.25 14.9 -16.0 14.7 -15.75 14.65 -15.75 14.6 -15.7 14.55 -15.55 14.4 -15.35 14.35 -15.1 14.3 -15.1 14.25 -15.05 14.2 -15.05 14.15 -14.75 14.1 -14.65 14.05 -14.5 14.0 -14.3 13.85 -13.6 13.75 -13.4 13.65 -13.3 13.6 -13.05 13.4 -12.8 13.3 -12.6 13.3 -12.45 13.15 -12.35 13.15 -12.15 13.05 -12.05 13.05 -11.9 13.0 -11.75 12.9 -11.65 12.85 -11.6 12.75 -11.4 12.65 -11.1 12.65 -11.05 12.65 -11.05 12.55 -10.8 12.5 -10.6 12.4 -10.4 12.4 -10.35 12.35 -10.3 12.35 -10.15 12.25 -10.05 12.2 -9.95 12.2 -9.25 11.85 -9.05 11.8 -8.85 11.75 -8.6 11.7 -8.6 11.65 -8.1 11.35 -7.95 11.35 -7.15 11.0 -6.3 10.55 -6.05 10.55 -5.8 10.6 -5.8 10.65 -6.05 10.75 -6.1 10.85 -6.1 10.9 -6.15 10.95 -6.3 11.05 -6.4 11.05 -6.4 11.15 -6.35 11.2 -6.35 11.3 -6.55 11.3 -6.6 11.3 -6.65 11.5 -6.65 11.55 -6.75 11.55 -6.75 11.6 -6.75 11.7 -6.85 11.85 -6.85 11.9 -6.95 11.95 -7.15 12.05 -7.05 12.1 -7.05 12.2 -7.3 12.25 -7.35 12.25 -7.4 12.35 -7.4 12.4 -7.6 12.55 -7.6 12.6 -7.6 12.65 -7.65 12.7 -7.65 12.8 -7.85 12.85 -7.9 12.9 -7.95 12.95 -7.95 13.05 -7.95 13.1 -8.1 13.2 -7.95 13.25 -8.15 13.35 -8.15 13.4 -8.15 13.5 -7.95 13.5 -7.9 13.45 -7.9 13.35 -7.6 13.35 -7.2 13.1 -7.05 13.05 -6.4 12.8 Q-6.15 12.6 -5.9 12.55 L-4.45 11.85 -2.7 11.25 -1.7 10.85 Q-1.1 10.75 -0.85 10.5 L-0.7 10.4 -0.5 10.35 -0.2 10.3 0.6 9.75 1.8 9.35 1.95 9.25 2.4 9.05 2.55 9.0 2.65 8.95 2.9 8.85 3.05 8.7 3.1 8.7 3.6 8.55 3.65 8.5 3.65 8.45 3.8 8.4 3.95 8.4 4.2 8.2 4.2 8.15 4.35 8.15 4.75 8.05 4.9 8.05 5.1 8.1 5.25 8.15 5.25 8.3 5.25 8.35 5.15 8.4 5.15 8.5 5.05 8.6 5.05 8.65 5.1 8.65 5.1 8.75 5.05 8.8 4.75 9.15 4.55 9.4 4.45 9.85 4.35 9.95 4.3 10.15 4.3 10.25 4.3 10.35 4.2 10.5 4.15 10.8 4.15 10.9 5.6 10.25 8.05 9.3 8.6 9.1 9.25 8.75 10.8 8.2 12.6 7.4 13.0 7.15 13.75 6.9 14.85 6.35 16.25 5.8 16.65 5.55 Q16.65 5.45 16.85 5.4" fill="#ffffff" fill-rule="evenodd" stroke="none"/>
  </g>
</svg>
